<?xml version="1.0" standalone="no"?>
<!DOCTYPE svg PUBLIC "-//W3C//DTD SVG 20010904//EN"
 "http://www.w3.org/TR/2001/REC-SVG-20010904/DTD/svg10.dtd">
<svg version="1.0" xmlns="http://www.w3.org/2000/svg"
 width="1024.000000pt" height="1024.000000pt" viewBox="0 0 1024.000000 1024.000000"
 preserveAspectRatio="xMidYMid meet">
<metadata>
Created by potrace 1.14, written by Peter Selinger 2001-2017
</metadata>
<g transform="translate(0.000000,1024.000000) scale(0.100000,-0.100000)"
fill="#000000" stroke="none">
<path d="M4808 7303 c-73 -69 -134 -127 -136 -129 -2 -1 15 -30 37 -63 61 -95
76 -149 75 -271 0 -128 -23 -194 -91 -270 -91 -101 -206 -157 -400 -191 -112
-21 -161 -22 -1018 -29 -973 -8 -958 -7 -1175 -66 -237 -64 -430 -174 -597
-342 -240 -240 -357 -546 -339 -887 5 -108 33 -266 50 -282 7 -7 48 30 247
226 l117 113 -34 73 c-47 101 -67 193 -67 305 0 278 158 464 463 544 52 14
133 30 180 36 96 11 620 14 620 3 0 -36 -195 -1716 -209 -1808 -38 -234 -114
-407 -229 -523 l-64 -64 -129 7 -129 7 -138 -133 c-75 -73 -138 -135 -140
-139 -2 -5 903 -41 1028 -40 l55 0 128 128 c70 70 127 130 127 133 0 3 -100 9
-222 13 -123 4 -260 9 -306 13 l-83 6 82 44 c226 120 321 242 374 478 16 73
56 400 120 980 52 478 95 877 95 886 0 14 37 17 393 22 418 7 525 16 692 62
356 98 651 316 784 582 58 117 76 201 76 363 0 125 -3 154 -23 210 -25 72 -57
130 -72 130 -5 0 -69 -57 -142 -127z"/>
<path d="M8511 7415 c-255 -57 -473 -196 -684 -432 -175 -197 -279 -398 -380
-733 -77 -253 -138 -568 -186 -950 l-27 -215 -607 -3 c-334 -1 -607 1 -607 5
0 4 16 154 35 333 31 281 78 598 129 858 l14 72 -189 0 c-214 0 -363 -16 -531
-59 -471 -119 -817 -424 -932 -823 -36 -126 -49 -248 -44 -405 6 -142 32 -293
52 -292 6 0 89 76 185 169 l175 168 -31 69 c-48 104 -64 168 -70 278 -10 181
43 324 160 430 137 125 378 195 669 195 l128 0 -5 -27 c-3 -16 -43 -370 -90
-788 -96 -856 -107 -947 -136 -1095 -45 -235 -104 -350 -231 -451 l-52 -41
-123 7 -122 7 -141 -133 c-77 -73 -140 -135 -140 -139 0 -5 804 -41 912 -40
47 0 49 1 178 126 71 70 130 130 130 134 0 4 -84 10 -187 14 -104 4 -214 9
-246 13 l-58 6 71 39 c104 56 157 94 226 162 127 127 167 273 225 824 l12 112
609 0 609 0 -5 -32 c-7 -39 -39 -360 -61 -603 -39 -436 -56 -815 -37 -815 9 0
684 310 767 353 72 36 100 69 99 118 -1 22 -4 43 -8 46 -4 4 -32 -6 -64 -21
-133 -66 -252 -85 -312 -50 -60 36 -65 59 -64 274 2 205 16 401 64 890 80 799
183 1460 272 1740 98 310 263 450 528 450 119 0 211 -28 332 -101 l37 -22 165
158 c105 100 163 162 157 168 -5 5 -47 21 -93 35 -71 21 -107 25 -248 28 -118
3 -183 -1 -229 -11z"/>
</g>
</svg>
